<svg xmlns="http://www.w3.org/2000/svg" width="112" height="112" viewBox="0 0 112 112" fill="none"><path fill-rule="evenodd" clip-rule="evenodd" d="M52.0307 1.06678C54.4868 -0.355593 57.5132 -0.355593 59.9693 1.06678L107.031 28.3226C109.487 29.745 111 32.3736 111 35.2184V89.729C111 92.5738 109.487 95.2023 107.031 96.6248L91.8029 105.443L88.3211 103.427L84.3925 105.702V109.128L84.3518 109.104L84.3111 109.128V105.702L80.3825 103.427L76.454 105.702V110.253L79.4309 111.977V112L76.4133 110.253L73.3956 112V111.977L76.3726 110.253V105.702L72.444 103.427L69.4263 105.174V105.151L72.4033 103.427V98.8771L68.4747 96.6015L64.5461 98.8771V102.302L64.5054 102.278L64.4647 102.302V98.8771L60.5362 96.6015L57.5185 98.3493V98.325L60.4955 96.6015V92.0512L56.5669 89.7756L52.6383 92.0512V95.4758L52.5976 95.4525L52.5569 95.4758V92.0512L48.6284 89.7756L44.6998 92.0512V95.4758L44.6591 95.4525L44.6184 95.4758V92.0512L40.6898 89.7756L36.7612 92.0512V95.4758L36.7205 95.4525L36.6798 95.4758V92.0512L32.7513 89.7756L29.7336 91.5234V91.4991L32.7106 89.7756V85.2254L28.782 82.9508L24.8534 85.2254V88.65L24.8127 88.6267L24.772 88.65V85.2254L20.8435 82.9508L17.8258 84.6976V84.6742L20.8028 82.9508V78.4005L16.8742 76.1249L12.9456 78.4005V81.8251L12.9049 81.8018L12.8642 81.8251V78.4005L8.93564 76.1249L5.00707 78.4005V81.8251L4.96636 81.8018L4.92566 81.8251V78.4005L1 76.1259V35.2184C1.00006 32.3736 2.51327 29.745 4.96927 28.3226L52.0307 1.06678ZM8.97634 71.5747V76.1249L12.9049 78.4005L16.8335 76.1249V71.5747L12.9049 69.2991L8.97634 71.5747ZM41.2926 29.768C40.1965 27.8637 37.7682 27.2114 35.8697 28.3109C33.9716 29.4105 33.3211 31.8454 34.4171 33.7496L52.1509 64.5602C53.0415 66.1077 54.8115 66.8288 56.4622 66.4548H82.6007C84.7929 66.4548 86.57 64.6722 86.57 62.4732C86.5697 60.2744 84.7927 58.4916 82.6007 58.4916H57.8247L41.2926 29.768Z" fill="#36995F"></path></svg>